<svg xmlns="http://www.w3.org/2000/svg" viewBox="0 0 640 420" width="640" height="420">
  <defs>
    <linearGradient id="g" x1="0" y1="0" x2="1" y2="1">
      <stop offset="0%" stop-color="#f7dd9c"/>
      <stop offset="55%" stop-color="#e7b740"/>
      <stop offset="100%" stop-color="#b6851d"/>
    </linearGradient>
  </defs>
  <path d="M170,252.5L168.3,255.3L167.5,254.2L167.2,252.3L168.7,249.7L169.5,248.3L170.9,247.8ZM283,394.2L282.4,393.9L279.5,391.9L278,389.4L275.8,387.6L272.6,386.4L270.5,384.9L269.5,383.3L268.3,382.3L267.1,381.8L267,381.2L267.3,380.4L267,379L265.1,375.7L263.3,374.2L261.8,374.5L260.9,374.1L260.4,373.4L260.2,372.3L259.3,371.4L257.5,371L256.1,368.6L255,364.2L253.6,360.8L251.9,358.4L250.6,357.4L249.7,357.3L249.4,356.9L249.2,356.2L247.8,355.9L245.9,356.7L244.2,356.4L243.4,355.2L242.2,355.1L240.8,356.1L239.2,355.8L237.4,354.2L236.4,352.7L236.3,351.1L233.2,348L227.2,343.4L220.8,341.2L213.8,341.5L209.9,341.2L209,340.5L208.1,340.6L207.3,341.4L206.5,341.6L205.5,341.1L204.9,341.5L204.6,342.7L202.1,343.3L197.4,343.3L193.6,344L190.7,345.5L186.7,346.1L181.4,345.9L178.3,345.4L177.2,344.5L175.6,344.3L173.7,344.8L172,347.1L170.5,351.2L169.2,353.6L168.2,354.2L167.1,357.3L166.5,362.4L165.5,364.7L165.5,351.8L167,347L167.5,342.7L170.8,333.4L174.5,325.7L178.1,315.4L179.5,305.5L179,295.8L177.9,287.1L176.1,281.4L174.4,273.1L171.9,268.7L167.2,264.8L166.1,262.6L167.2,261.7L170.1,261.1L171.9,258.1L168.1,259.3L172.5,250.1L173.8,243.8L173.6,239.7L174.5,237.1L171.1,231.6L168.5,224.6L167.1,223.5L165.7,223L165.6,224.6L164.8,226.1L163.1,225.2L160.2,220.1L156.1,211.8L154.7,210.9L153.5,212.1L152.8,213.2L151.4,220.1L151,217.4L151.6,214.1L152.6,210.2L153.7,204.6L157.2,204.6L163.5,204.6L169.9,204.6L176.2,204.6L182.6,204.6L188.9,204.6L195.2,204.6L201.6,204.6L207.8,204.6L214.2,204.5L220.6,204.5L226.8,204.5L233.2,204.5L239.6,204.5L245.9,204.5L252.2,204.5L258.6,204.5L262.7,204.5L262.4,200.5L262.2,197.4L262,193.2L261.7,189L261.5,184.8L261.2,180.9L261,176.9L260.7,173.3L260.5,169.9L260.2,168L258.9,164.1L258.6,162.2L259,160.2L259.8,158.2L262.3,154.8L266,152.1L270.4,149L273.7,146.6L275.4,146.1L280.5,145.2L284.5,143.4L288.5,141.7L290.2,140.7L290.4,137.4L290.4,133.8L290.4,129.7L290.4,125.6L290.4,121.4L290.4,117.3L290.4,113.2L290.4,109.1L290.4,105L290.4,100.8L290.4,96.7L290.4,92.5L290.4,88.4L290.4,84.2L290.4,80L290.4,75.9L290.4,71.7L290.4,67.5L290.4,63.9L294.4,63.9L299.6,63.9L304.8,63.9L309.9,63.9L315,63.9L320.2,63.9L325.4,63.9L330.5,63.9L335.6,63.9L340.8,63.9L346,63.9L351.1,63.9L356.2,63.9L361.4,63.9L366.5,63.9L371.7,63.9L376.8,63.9L382.4,63.9L382.4,60.3L382.4,55.3L382.4,48.4L382.4,41.4L382.4,35.3L382.4,29.2L382.3,24L387.6,27.4L392.8,30.8L398,34.3L403.1,37.7L408.4,41.1L413.6,44.5L418.7,48L423.9,51.4L429.2,54.8L434.3,58.2L439.5,61.6L444.7,65L450,68.4L455.1,71.8L460.3,75.1L465.5,78.5L469.8,81.4L476.5,85.9L482.8,90.2L489,94.5L479.4,94.5L466.5,94.5L457.6,94.5L448.6,94.5L440.1,94.5L440.8,101.4L441.6,109L442.4,116.5L443.2,124.1L444,131.6L444.8,139.1L445.6,146.5L446.4,154L447.2,161.5L447.9,168.9L448.7,176.3L449.5,183.7L450.2,191.2L451,198.5L451.8,205.9L452.6,213.3L453.4,220.6L454.2,228L455,235.3L455.8,242.6L456.5,249.9L457.3,257.2L458.1,264.5L458.9,271.7L459.7,279L460.5,286.3L461.3,293.5L462.1,300.7L462.9,307.9L463.7,315.2L464.5,322.4L465.2,329.5L466,336.7L466.8,343.7L470,347.3L474.2,351.9L473,358.4L471.5,366.1L469.9,374.5L464.2,374.5L458.5,374.5L452.8,374.5L447.3,374.5L441.6,374.5L435.9,374.5L430.4,374.5L424.7,374.5L419,374.5L413.5,374.5L407.8,374.5L402.1,374.5L396.6,374.5L390.9,374.5L385.2,374.5L379.7,374.5L374,374.5L368.7,374.5L365.5,374.3L364.3,373.6L363.9,369.3L363,369.6L361.9,370.9L361.3,372.3L361.5,374L361.3,375.6L357.7,376.2L352.8,377.2L347.6,378L342.5,377.7L340.7,377.4L338.8,376.8L334.6,376.2L332.4,376.1L329.8,376.2L326.8,376.6L325.8,377.4L323.5,380.7L321.3,384.4L319.8,384.4L318.2,382.3L313.7,378.4L308.3,373.4L305.9,370.8L304.5,370.5L301.9,372.3L299.7,374L297.4,376.5L296.3,378.9L295.5,381.7L295.1,385L294.3,388.9L292.5,391.9L290.2,394.3L288.6,395.4L287.9,396Z" fill="url(#g)" stroke="#fff6dd" stroke-width="1.4"
        stroke-linejoin="round" stroke-linecap="round"/>
</svg>