<svg xmlns="http://www.w3.org/2000/svg" viewBox="0 0 640 420" width="640" height="420">
  <defs>
    <linearGradient id="g" x1="0" y1="0" x2="1" y2="1">
      <stop offset="0%" stop-color="#f7dd9c"/>
      <stop offset="55%" stop-color="#e7b740"/>
      <stop offset="100%" stop-color="#b6851d"/>
    </linearGradient>
  </defs>
  <path d="M420.1,262L418,262.6L417.2,262.3L417.3,257.5L422.5,251.5L425.9,244.5L428.4,250.7L424.1,254.2L421.9,260.2ZM219.5,396L217.4,391.1L215.2,386.2L213.1,381.3L210.9,376.4L209.3,372.9L206.8,371.8L205.2,368.1L203.7,364.4L202.2,360.6L200.5,356.9L199,353.2L197.4,349.5L195.9,345.7L194.2,342L192.7,338.2L191.1,334.5L189.5,330.7L187.9,327L186.4,323.2L184.7,319.5L183.2,315.7L181.7,312L180.1,308.2L185.1,306.5L191.3,304.3L197.3,302.2L203.4,300L209.6,297.8L215.8,295.7L221.8,293.5L227.9,291.3L234.1,289.2L240.2,287L246.4,284.9L252.4,282.7L258.6,280.5L264.7,278.3L270.9,276.1L277,274L283,271.8L286.9,270.5L288.4,265.4L289.7,261.2L291,257L292.4,252.8L293.7,248.6L294.9,244.4L296.2,240.2L297.5,236L298.8,231.7L300.2,227.5L301.5,223.3L302.8,219.1L304,214.8L305.3,210.6L306.7,206.3L308,202.1L309.3,197.9L310.5,194L308.3,190.2L305.2,185.2L302,179.9L299,174.9L296.9,171.3L294.3,167L294.6,161.3L294.6,158.5L294.8,154.2L297.3,148.2L300.2,140.5L302.4,135.4L304.3,131L305.7,127.4L306.6,123.8L306.1,121.1L305.2,120.3L304.3,119L307.1,117L312.5,115.8L315.5,116.1L319.4,115.1L322.8,114.2L323,113.1L322.1,111.1L320.7,108.3L316.1,108L314.7,107.3L316.3,103.1L316.2,101.8L315.7,100.2L315.1,97.6L315.3,94.2L316.2,91.9L316.3,90L315.8,86.1L316,82.7L317,81.1L318.7,79.5L320.3,78.7L322,78.8L323.3,79.4L323.9,81.2L323.5,82.5L322.5,82.6L322.2,83.1L323.5,85.5L325.6,87.8L327,87.4L328.8,85.6L330.6,84.1L332.8,82.8L334.4,80.3L335.8,78.6L337.1,78.4L340.7,88.7L346.1,98.4L350.8,103.7L355.7,110.9L363.3,117.5L366.7,119.7L380.6,124.4L388.2,126.1L398.7,127.8L406.1,131.3L408.5,131.5L412.2,130.5L415,130.6L421.9,135.5L424,140.2L426.9,142.6L429.5,146.4L431.2,150.4L436.9,156.6L441.2,163.5L445.4,168.6L449.1,171.8L454.8,173L459.4,174.5L459.9,177.9L459.4,182.3L458.5,185.6L454.2,192L453.2,195.9L448.5,202.4L443.2,213.2L440.9,215.7L432.5,221.3L426.3,228L419,239.7L413.5,251.2L411.3,254.9L406.8,255.7L403.9,255.3L402,254.2L402.7,251.1L403.2,247.5L400.5,247.9L398.1,248.7L392.6,257.3L389.5,261.1L388.9,265.9L387.3,272.1L385.3,277.7L384.3,282.5L384.3,285.2L385.9,291.8L386.1,298.6L387,302.6L387.7,307.4L385.2,309L382.9,309.7L374.1,310.2L365.2,311.8L357.4,314.6L352.6,317.4L346.6,323.6L342.9,339.4L336.9,346.1L332.9,347.5L323.1,348L309.6,349.9L304.7,351.5L296.7,361.1L296.1,364.1L297.6,366.3L298.2,368.7L297.5,371L293.8,377.1L289.9,381.5L279.6,384.3L275.7,382.6L272.3,381.8L265.5,381.7L254.5,382.8L250.5,386L244.1,388.3L238.2,391.9L227,393.2ZM333.9,52L333.1,52.9L332.1,52.9L329.8,52.2L328.4,50.4L328.7,48.2L328.8,44.2L329.4,40.3L329.2,36.3L327.4,35.4L326.1,35.6L329.2,29.9L330.3,29L331.3,29.4L334.2,28.8L335.6,25.7L336.7,24L338,24.2L338.5,25.2L338.1,29.9L338.1,33.9L336.6,45.9L334.9,47.9L334.2,49.7ZM333.3,68.3L331.9,69.4L330.7,69.2L331,67.1L331.6,65.6L333.1,65.7L333.5,66.6Z" fill="url(#g)" stroke="#fff6dd" stroke-width="1.4"
        stroke-linejoin="round" stroke-linecap="round"/>
</svg>