<svg xmlns="http://www.w3.org/2000/svg" viewBox="0 0 640 420" width="640" height="420">
  <defs>
    <linearGradient id="g" x1="0" y1="0" x2="1" y2="1">
      <stop offset="0%" stop-color="#f7dd9c"/>
      <stop offset="55%" stop-color="#e7b740"/>
      <stop offset="100%" stop-color="#b6851d"/>
    </linearGradient>
  </defs>
  <path d="M441.8,210.1L439.4,211.8L436.7,214.3L435,218.5L434.7,225.4L425.9,230.8L422.5,232L421,235.4L418.8,245.6L419.1,253.2L420.3,257L420.8,260.2L423.7,264L426.2,270L427.9,277.8L431.8,283.8L441.3,289.8L446.2,293.2L449.6,298.2L452.3,302.6L460.4,308.8L459.6,313L457.9,317.2L456.2,319.1L452.3,324.4L448.4,327.5L442,337L432,337.5L429.6,338.3L425.7,340.8L424,345.5L425.7,349.2L425.4,353L423.7,360.4L426.2,368.4L429.6,372.1L430.1,374.2L429.6,377.8L424.2,385.3L422.7,388L417.4,389.5L415.7,388.8L413,386.1L410.3,385.5L403.9,388.5L397.6,390.3L392.4,388.8L387.6,388.7L384.1,389.9L381.4,390.4L376.3,393.8L368.3,396L364.3,395.5L362.9,392.5L361.4,388.2L362.1,386.1L367.5,382.8L368.3,379.4L375.8,363.6L377.3,358.5L377.3,356.7L375.3,355.6L371.2,355.6L352.6,349.2L353.6,341.8L348.2,337.8L342.4,334.2L341.4,330.2L334.8,322.2L330.1,317.6L324,315.4L318.7,312L315.7,310.1L314.3,306.3L314.3,304.1L312.5,301.8L310.1,302.1L306,305L300.6,307.6L299.6,309.6L301.6,314.1L303,316.8L302.3,319.6L300.6,323L290.6,330.5L289.3,333.1L291.3,337.3L290.1,339.4L281.8,342.1L282,339.9L281.3,336.2L276.6,332.1L269.8,329.1L254.4,318.6L248.8,317.2L243.4,316L236.1,310.9L232.2,310.1L227.8,306.5L218.5,294.2L210.7,287.6L205.3,284.3L203.8,280.9L203.3,277.7L203.6,276.5L207.7,271.6L210.9,271L214.8,270.8L217.5,273.3L221.2,273.8L223.1,270.7L224.1,266.3L223.6,260.6L215.1,247.2L208,237.9L207,235.9L208.7,234.1L211.2,233.3L213.8,233.9L220.9,234.6L227.8,233.8L230,231.5L230,228.5L227.5,225.6L219.7,218L213.3,211.3L206.3,206L200.6,204.1L199.2,201.4L198.4,198.5L199.2,193.3L199.4,186.7L200.6,182.6L205.5,174.8L210.2,166.4L213.1,158.4L214.6,151L214.1,148.8L211.6,147.3L206.5,145.6L199.4,147.1L193.3,149.8L190.9,150L190.1,146.6L191.1,145.1L193.1,145.3L194.5,146L196.2,144.5L197.2,140L194.8,124.3L199.2,122.8L199.4,120.6L199.7,118.6L204.3,121.3L210.9,121.3L216.8,120.8L217.7,119.3L217.5,116.9L216.3,115.3L214.3,113.8L212.9,111.6L209,110.8L196.7,105.1L190.9,99L190.9,92.5L192.6,88.9L194.8,87.8L194.3,86.6L187.2,83.6L184.8,79.5L187,74.1L183.3,63.3L179.6,56.6L183.3,53.7L183.8,49.6L184,47.3L185.5,47.3L191.6,44.5L193.6,42.3L195,39.6L196.2,39L200.4,41.8L204.6,42.2L209.2,40.3L212.9,37.8L217,35.7L219,34.4L221.4,32L226.5,25.4L232.2,24L239.5,25.7L247.8,26.4L253.9,24.9L269.3,26.7L272.5,28.3L274.7,30L278.8,35.7L282.7,43L288.1,46.4L294.5,50.5L297.6,53.4L302.5,62.1L306.4,66.4L307.7,66.2L308.9,65L309.9,64.2L310.8,65L310.8,67.7L311.1,73.5L310.3,79.9L311.6,85.7L311.6,87.6L310.8,89.3L310.8,90.8L312.3,92.3L317.4,96.2L322.3,102.2L327.7,106.6L333.1,109.2L336.2,109.4L341.6,114.3L352.1,117.8L355.6,118.9L357.7,121L359.5,123.3L359.5,125.6L358,126.8L355.6,130.1L354.8,134.3L353.1,135.3L351.4,135.3L350.2,136.6L350.4,138.3L351.9,140L354.1,141.5L358.2,143L362.4,145.3L362.4,147L361.4,148.8L356.3,149.6L352.4,150L350.4,150.6L350.7,154.1L361.7,157.6L366.8,160.9L369.2,165.2L376.3,168L387.8,169.4L395.9,173.8L400.3,181.3L407.6,179.5L417.9,168.4L427.9,165.6L437.6,170.9L443,175.2L444,178.5L441.6,180L436.2,179.3L431.5,181.5L428.1,186.2L427.6,191.4L430.1,196.8L433.5,200.6L438.1,202.7L440.3,205.5L440.8,209.2Z" fill="url(#g)" stroke="#fff6dd" stroke-width="1.4"
        stroke-linejoin="round" stroke-linecap="round"/>
</svg>